<?xml version="1.0" standalone="no"?>
<!DOCTYPE svg PUBLIC "-//W3C//DTD SVG 20010904//EN"
 "http://www.w3.org/TR/2001/REC-SVG-20010904/DTD/svg10.dtd">
<svg version="1.0" xmlns="http://www.w3.org/2000/svg"
 width="260.000000pt" height="260.000000pt" viewBox="0 0 260.000000 260.000000"
 preserveAspectRatio="xMidYMid meet">
<metadata>
Created by potrace 1.11, written by Peter Selinger 2001-2013
</metadata>
<g transform="translate(0.000000,260.000000) scale(0.100000,-0.100000)"
fill="#000000" stroke="none">
<path d="M1111 2591 c-8 -5 -30 -7 -48 -4 -19 3 -44 1 -56 -5 -12 -6 -35 -13
-52 -16 -80 -13 -130 -27 -145 -41 -9 -8 -29 -15 -43 -15 -41 0 -67 -33 -67
-83 0 -23 0 -53 -1 -67 -1 -47 13 -120 27 -131 8 -6 14 -24 14 -39 0 -15 9
-39 20 -53 11 -14 20 -33 20 -42 0 -10 15 -32 34 -49 18 -18 37 -42 40 -54 4
-12 20 -29 36 -37 15 -8 42 -28 58 -45 17 -16 38 -30 46 -30 26 0 18 -14 -20
-35 -41 -22 -124 -110 -124 -131 0 -10 14 -14 49 -14 36 0 65 -8 107 -31 l59
-31 76 12 c67 10 85 10 134 -5 83 -24 136 -87 165 -195 6 -25 27 -92 45 -150
18 -58 51 -170 72 -250 34 -131 38 -157 38 -270 l0 -125 -65 -124 c-78 -149
-119 -199 -175 -211 -22 -5 -91 -10 -152 -11 -62 0 -113 -4 -113 -9 0 -4 39
-27 88 -51 48 -23 107 -60 131 -81 161 -140 394 -138 548 5 26 24 73 55 103
69 30 14 78 41 105 60 28 18 66 40 85 48 139 55 243 193 260 342 11 96 36 184
64 222 113 155 90 359 -57 505 -60 60 -61 61 -68 133 -11 102 -53 181 -134
256 -64 58 -70 72 -33 72 10 0 34 15 53 33 19 17 48 42 65 55 16 13 30 29 30
35 0 7 13 23 30 37 16 14 31 34 33 46 1 11 13 33 25 49 12 15 22 38 22 52 0
13 7 35 16 48 9 14 14 35 11 46 -3 12 1 32 10 46 13 19 14 29 5 48 -6 14 -9
39 -5 55 7 38 -27 80 -65 80 -14 0 -33 7 -43 16 -10 9 -39 19 -64 22 -25 2
-48 9 -51 13 -3 5 -20 9 -39 9 -19 0 -37 5 -40 10 -4 6 -30 11 -58 10 -29 0
-63 0 -77 0 -14 1 -50 -4 -80 -9 -30 -6 -73 -13 -95 -17 -22 -4 -52 -15 -66
-25 -14 -10 -37 -21 -52 -24 -37 -10 -93 -77 -130 -155 l-30 -65 -13 38 c-17
49 -81 145 -109 163 -12 8 -33 17 -45 19 -13 2 -33 13 -44 24 -12 10 -39 22
-61 25 -60 10 -137 24 -165 31 -14 3 -31 1 -39 -4z m1 -91 c51 -24 46 -24 50
2 3 21 3 21 34 -5 39 -33 54 -34 54 -5 0 20 3 19 35 -12 l34 -33 9 23 c8 23 9
22 42 -19 29 -36 36 -40 46 -27 10 14 13 13 31 -7 32 -34 73 -123 80 -172 7
-55 -9 -98 -48 -126 l-28 -20 -50 39 c-95 75 -393 230 -424 219 -5 -1 39 -30
99 -64 167 -94 324 -215 324 -251 0 -28 -39 -78 -77 -99 -42 -23 -92 -38 -168
-48 -41 -5 -48 -4 -37 6 21 22 14 26 -49 33 -46 6 -59 10 -50 19 19 19 13 25
-40 38 -45 12 -48 15 -33 26 20 15 20 15 -26 38 -58 29 -66 39 -39 45 22 5 21
7 -19 35 -44 32 -52 45 -27 45 22 0 19 10 -17 47 -30 31 -31 33 -10 33 32 0
27 15 -15 55 l-38 34 28 1 c32 0 34 14 7 58 l-20 32 55 0 c56 0 65 6 43 29
-11 11 -5 12 32 7 86 -12 85 -12 83 7 -1 19 -2 19 66 0 21 -5 23 -3 19 15 -7
27 -7 27 44 2z m905 5 c-9 -22 9 -28 35 -11 13 7 34 17 48 21 22 7 23 6 11 -9
-20 -24 -6 -31 38 -18 50 16 50 16 43 -10 -4 -18 -2 -20 19 -14 13 3 44 9 69
12 37 6 43 4 33 -7 -22 -23 -14 -29 37 -29 54 0 56 -3 35 -40 -20 -35 -18 -50
5 -50 29 0 25 -16 -10 -42 -35 -26 -39 -48 -8 -48 20 0 18 -4 -17 -40 -37 -38
-38 -40 -15 -40 l23 0 -23 -25 c-13 -13 -31 -27 -42 -31 -22 -7 -24 -24 -3
-24 28 0 15 -17 -30 -41 -43 -23 -57 -39 -35 -39 20 0 9 -18 -15 -24 -13 -3
-36 -11 -51 -16 -25 -10 -26 -11 -9 -24 17 -12 12 -14 -43 -21 -64 -7 -71 -12
-49 -34 10 -10 3 -11 -38 -6 -104 14 -167 37 -205 75 -56 56 -56 72 -2 125 57
56 228 173 326 222 108 55 62 51 -63 -5 -123 -55 -220 -110 -301 -171 -57 -43
-67 -43 -105 -1 -31 35 -28 130 8 200 15 30 37 66 48 80 18 22 22 23 30 8 8
-15 15 -11 49 25 35 38 40 40 40 20 0 -31 8 -29 47 9 31 30 33 31 33 10 0 -28
8 -28 45 3 34 28 50 32 42 10z"/>
<path d="M804 1640 c-18 -6 -54 -30 -80 -53 -73 -66 -85 -70 -173 -62 -99 9
-137 -6 -180 -69 -38 -54 -67 -71 -140 -79 -65 -8 -98 -28 -116 -70 -22 -55
-39 -206 -40 -355 l0 -143 37 -34 c36 -34 90 -55 139 -55 18 0 29 -8 37 -26 7
-15 31 -34 60 -47 40 -19 65 -22 167 -22 66 -1 125 -3 130 -7 23 -14 121 -38
155 -38 20 0 39 -2 42 -5 3 -3 -4 -23 -14 -45 -28 -56 -18 -110 28 -150 42
-36 69 -44 131 -36 27 3 119 10 206 15 108 7 166 14 181 24 21 14 127 201 157
277 26 66 17 198 -25 365 -47 185 -131 447 -159 497 -22 41 -84 78 -130 78
-15 0 -57 -5 -95 -12 -68 -11 -69 -11 -125 21 -62 35 -139 48 -193 31z m172
-41 c55 -29 63 -31 124 -23 144 17 192 3 234 -69 30 -50 55 -133 132 -427 78
-301 77 -355 -13 -535 -49 -100 -68 -126 -103 -145 -14 -7 -85 -16 -165 -21
-77 -5 -160 -13 -184 -18 -123 -25 -208 86 -132 171 l29 33 189 0 c169 0 195
2 262 23 96 31 131 64 131 123 l0 42 -23 -44 c-31 -59 -80 -83 -204 -99 -75
-9 -108 -10 -140 -1 l-43 12 18 42 c19 48 23 175 7 272 -9 58 -10 56 -15 -75
-7 -146 -16 -179 -63 -214 -26 -19 -42 -21 -165 -21 -112 0 -143 3 -169 18
l-33 18 0 201 c0 111 -2 199 -5 196 -7 -7 -35 -280 -35 -344 0 -61 -5 -64 -90
-64 -94 0 -156 17 -195 55 l-35 32 -1 129 -2 129 -8 -87 c-4 -48 -13 -103 -20
-123 -12 -33 -16 -35 -44 -29 -46 10 -80 30 -99 58 -28 44 -18 370 15 473 16
51 52 73 119 73 54 0 60 2 93 39 19 22 40 49 46 60 19 34 69 54 131 51 131 -5
123 -7 178 40 73 63 108 80 168 80 39 0 67 -8 110 -31z"/>
</g>
</svg>
