<?xml version="1.0" standalone="no"?>
<!DOCTYPE svg PUBLIC "-//W3C//DTD SVG 20010904//EN"
 "http://www.w3.org/TR/2001/REC-SVG-20010904/DTD/svg10.dtd">
<svg version="1.0" xmlns="http://www.w3.org/2000/svg"
 width="862.000000pt" height="862.000000pt" viewBox="0 0 862.000000 862.000000"
 preserveAspectRatio="xMidYMid meet">
<metadata>
Created by potrace 1.14, written by Peter Selinger 2001-2017
</metadata>
<g transform="translate(0.000000,862.000000) scale(0.100000,-0.100000)"
fill="#000000" stroke="none">
<path d="M4297 6644 c-2 -2 -30 -8 -99 -20 -18 -3 -51 -10 -73 -16 -22 -5 -51
-12 -65 -14 -14 -2 -41 -8 -60 -13 -19 -6 -55 -14 -80 -20 -47 -10 -98 -22
-115 -27 -23 -6 -91 -17 -107 -18 -10 0 -18 -4 -18 -8 0 -4 -3 -7 -7 -6 -12 2
-84 -12 -113 -22 -14 -5 -38 -11 -55 -14 -16 -2 -30 -5 -30 -6 0 -4 -92 -20
-125 -22 -8 0 -19 -4 -25 -8 -5 -4 -19 -6 -29 -4 -11 1 -25 0 -30 -4 -6 -3
-15 -7 -21 -8 -5 -1 -30 -7 -54 -14 -34 -9 -46 -9 -55 1 -8 9 -7 10 4 4 13 -7
13 -5 -1 9 -16 17 -34 21 -154 32 -38 3 -73 8 -76 10 -4 2 -37 6 -75 9 -38 3
-103 10 -144 17 -41 6 -84 12 -95 13 -11 1 -40 8 -65 15 -50 15 -55 16 -90 23
-45 9 -85 20 -95 25 -5 4 -30 8 -55 10 -25 2 -58 7 -75 11 -16 4 -40 7 -52 6
-13 -1 -23 1 -23 4 0 6 -28 9 -89 11 -18 0 -43 6 -55 12 -38 21 -111 27 -176
16 -68 -13 -93 -17 -117 -23 -13 -3 -31 -7 -42 -9 -10 -2 -35 -9 -55 -14 -26
-8 -36 -7 -36 1 0 9 -2 9 -8 1 -8 -12 -30 -20 -77 -29 -54 -9 -75 -14 -83 -18
-4 -3 -23 -8 -42 -11 -19 -3 -46 -8 -60 -12 -14 -3 -35 -6 -47 -7 -13 -1 -23
-4 -23 -7 0 -4 -6 -7 -12 -7 -21 -1 -75 -13 -100 -21 -13 -5 -30 -8 -38 -7 -8
1 -19 -2 -25 -6 -5 -4 -30 -10 -55 -14 -25 -3 -65 -11 -90 -17 -25 -5 -56 -11
-70 -13 -34 -6 -58 -11 -108 -25 -24 -6 -55 -13 -70 -16 -15 -2 -52 -9 -82
-14 -30 -6 -87 -9 -126 -9 -40 1 -77 -1 -83 -5 -6 -4 -9 -21 -6 -39 8 -54 17
-131 19 -152 0 -11 5 -26 9 -32 5 -7 6 -13 2 -13 -3 0 -1 -10 6 -21 8 -15 8
-19 0 -15 -8 5 -8 1 -2 -16 20 -51 24 -64 22 -81 -1 -9 5 -20 14 -23 13 -6 14
-8 3 -15 -10 -7 -9 -9 5 -9 12 0 17 -8 17 -26 0 -14 4 -23 10 -19 9 6 14 -8
11 -28 -1 -5 3 -6 9 -2 5 3 10 3 10 -2 0 -4 22 -32 48 -60 26 -29 61 -69 77
-88 17 -20 36 -43 43 -51 7 -8 10 -14 5 -14 -4 0 -3 -4 2 -8 6 -4 21 -24 35
-44 14 -21 29 -38 33 -38 5 0 6 -4 3 -8 -3 -5 6 -16 20 -26 13 -11 24 -24 24
-31 0 -7 7 -16 16 -19 9 -4 14 -9 11 -12 -3 -3 1 -13 9 -22 40 -46 67 -85 54
-77 -24 14 5 -20 82 -98 38 -37 68 -69 68 -72 0 -5 25 -37 47 -60 7 -8 13 -17
13 -20 0 -4 14 -20 30 -35 17 -15 30 -33 30 -39 0 -6 5 -11 10 -11 6 0 10 -7
10 -16 0 -8 5 -12 10 -9 6 3 10 0 10 -9 0 -8 3 -16 8 -18 4 -1 27 -32 51 -68
25 -36 54 -73 65 -82 10 -10 16 -18 11 -18 -4 0 3 -9 16 -21 13 -11 18 -17 10
-13 -9 5 -12 3 -7 -4 4 -7 11 -12 16 -12 9 0 65 -51 65 -60 0 -10 50 -55 57
-53 5 2 8 -4 8 -13 0 -8 4 -13 9 -10 5 3 11 -3 14 -14 3 -10 1 -20 -3 -22 -5
-2 -10 -9 -12 -16 -2 -7 -23 -33 -47 -57 l-43 -45 6 -57 c10 -84 11 -100 2
-183 -4 -41 -8 -77 -8 -80 -1 -20 4 -29 21 -35 12 -4 21 -20 26 -48 16 -91 17
-90 -51 -166 -22 -24 -39 -47 -39 -52 0 -6 -16 -27 -36 -47 -19 -20 -59 -68
-88 -106 -59 -76 -87 -110 -114 -138 -9 -10 -15 -18 -13 -18 5 0 -78 -123
-116 -171 -26 -34 -38 -55 -131 -229 -28 -52 -54 -96 -59 -98 -4 -2 -8 -12 -8
-21 0 -10 -9 -30 -21 -45 -11 -14 -17 -26 -14 -26 4 0 3 -6 -3 -13 -26 -31
-189 -364 -184 -376 8 -24 51 -83 76 -105 45 -40 66 -56 76 -56 5 0 14 -8 19
-17 6 -10 11 -15 11 -11 0 7 87 -37 145 -74 59 -37 124 -69 153 -74 13 -3 46
-16 73 -30 27 -13 49 -22 49 -19 0 3 17 -3 38 -13 39 -20 122 -49 163 -57 13
-3 38 -8 54 -11 17 -2 48 -10 70 -16 22 -6 45 -12 50 -14 6 -1 37 -9 70 -17
33 -9 80 -18 105 -22 107 -13 129 -15 208 -20 46 -4 93 -9 105 -12 34 -8 108
-10 112 -3 2 4 35 5 72 3 131 -6 393 0 448 12 82 16 143 27 175 30 98 9 170
27 170 41 0 3 -7 33 -16 67 -8 33 -17 74 -20 91 -6 47 -18 122 -29 181 -3 17
-12 51 -20 78 -8 26 -14 49 -15 52 0 3 -2 10 -5 17 -7 23 -54 222 -62 263 -4
22 -8 42 -8 45 -6 21 -19 86 -20 92 0 3 -3 10 -8 14 -4 4 -7 14 -7 21 0 12
-36 92 -68 148 -6 11 -23 45 -37 75 -15 30 -37 66 -50 80 -23 25 -95 163 -110
208 -14 45 -124 190 -202 267 -24 23 -43 47 -43 54 0 25 -103 212 -134 244
-31 33 -66 57 -188 135 -43 27 -48 50 -22 106 13 28 38 64 56 81 49 46 79 85
67 85 -6 0 3 14 20 32 17 17 31 35 31 39 0 5 11 20 25 34 14 14 22 25 18 25
-4 0 0 5 10 11 9 6 15 14 13 18 -3 4 8 18 24 31 24 20 27 26 17 47 -5 12 -14
23 -19 23 -4 0 -8 7 -8 15 0 8 -4 15 -10 15 -5 0 -10 5 -10 12 0 6 -8 21 -17
32 -10 12 -14 18 -9 14 4 -3 27 14 51 39 24 25 48 43 53 39 5 -3 19 4 30 14
12 11 25 19 29 18 4 -1 54 21 111 50 56 28 102 48 102 45 0 -3 8 3 18 13 9 10
24 20 32 22 8 2 18 9 22 15 4 7 8 8 8 3 0 -5 8 -2 18 7 9 8 39 25 67 37 27 12
52 25 55 29 3 5 19 17 36 27 31 19 113 107 115 125 3 19 5 24 12 37 5 6 5 12
0 12 -4 0 0 5 10 11 9 5 17 15 17 21 0 6 6 19 14 27 8 9 16 23 18 31 2 8 9 21
16 28 7 8 10 18 7 23 -4 5 -2 9 3 9 5 0 9 6 10 13 0 6 3 28 6 47 2 19 5 43 5
52 1 9 8 24 17 32 8 9 13 16 9 16 -3 0 2 11 11 25 l17 26 15 -23 c9 -13 22
-29 29 -36 7 -8 11 -17 8 -22 -3 -4 2 -11 11 -14 9 -4 14 -9 11 -12 -5 -5 15
-31 58 -78 6 -6 22 -27 35 -46 13 -19 30 -41 37 -48 7 -7 13 -19 13 -25 0 -7
9 -18 20 -25 21 -13 29 -38 8 -26 -17 10 -17 10 91 -100 51 -53 90 -96 87 -96
-3 0 3 -10 13 -22 11 -13 29 -34 40 -47 12 -13 21 -28 21 -33 0 -5 4 -7 9 -3
5 3 12 -4 16 -15 3 -11 11 -20 16 -20 5 0 9 -6 9 -13 0 -8 11 -24 25 -37 13
-12 23 -28 22 -34 -1 -6 4 -10 11 -8 6 1 12 -5 12 -13 0 -8 9 -24 20 -35 11
-11 17 -20 14 -20 -3 0 8 -16 25 -35 17 -20 31 -40 31 -46 0 -6 5 -7 10 -4 6
3 10 1 10 -5 0 -6 13 -22 29 -36 17 -14 33 -34 36 -45 4 -10 11 -17 16 -14 5
4 13 -4 18 -17 6 -13 10 -19 10 -14 1 4 15 -7 32 -25 26 -27 29 -35 15 -37 -9
-2 -16 -10 -16 -18 0 -8 -20 -35 -44 -60 -40 -40 -44 -48 -41 -87 2 -23 4 -42
5 -42 9 0 12 -57 5 -120 -15 -149 -15 -151 17 -146 8 1 28 -90 28 -129 0 -18
-9 -37 -27 -52 -16 -13 -32 -31 -38 -40 -44 -68 -80 -116 -85 -113 -3 2 -26
-26 -50 -62 -25 -36 -52 -70 -60 -77 -8 -6 -23 -22 -32 -36 -9 -14 -25 -35
-37 -47 -12 -12 -21 -24 -21 -27 0 -2 -17 -28 -37 -58 -21 -30 -56 -81 -79
-114 -22 -32 -64 -102 -93 -154 -28 -52 -56 -102 -61 -110 -5 -8 -21 -40 -36
-70 -15 -30 -31 -58 -36 -61 -5 -3 -9 -9 -9 -13 1 -7 -61 -138 -69 -146 -3 -3
-18 -31 -34 -62 -16 -32 -32 -58 -36 -58 -3 0 -6 -10 -7 -21 -1 -12 -10 -30
-19 -40 -9 -11 -14 -19 -11 -19 3 0 0 -12 -8 -26 -13 -26 -11 -54 5 -54 5 0
11 -8 14 -17 16 -50 93 -111 225 -180 36 -18 67 -36 70 -40 20 -28 420 -191
486 -199 11 -1 67 -14 125 -29 166 -42 178 -45 223 -50 23 -3 58 -7 77 -10 19
-3 62 -8 95 -10 33 -3 85 -8 115 -11 53 -6 116 -7 190 -4 19 0 122 1 229 1
107 0 197 1 200 3 3 2 31 7 61 11 30 4 58 9 61 10 3 2 28 7 55 10 27 3 61 8
76 11 15 3 39 7 55 9 88 14 90 16 70 102 -9 37 -19 84 -21 103 -5 33 -30 170
-40 215 -3 11 -14 54 -25 95 -18 66 -27 101 -47 185 -3 11 -6 25 -8 30 -2 6
-6 28 -10 50 -10 56 -26 123 -41 170 -21 66 -145 306 -161 312 -12 4 -64 101
-64 119 0 3 -9 19 -21 35 -11 16 -18 29 -14 29 8 0 -22 57 -61 113 -32 46 -47
65 -146 172 -27 29 -48 56 -48 61 0 5 -23 54 -51 109 -55 112 -104 170 -171
204 -16 8 -28 18 -28 23 0 4 -6 8 -14 8 -7 0 -25 11 -40 25 -15 14 -31 25 -36
25 -16 0 -32 40 -22 53 5 7 15 28 21 47 6 19 23 49 37 65 15 17 23 23 20 15
-4 -8 0 -5 9 7 9 12 25 32 36 44 10 12 16 26 13 30 -3 5 2 9 11 9 9 0 14 4 11
9 -3 5 5 20 18 34 13 14 21 28 19 31 -3 3 2 8 11 12 9 3 16 11 16 17 0 6 7 17
15 26 78 86 76 83 59 103 -10 10 -13 18 -8 18 5 0 2 5 -7 10 -9 5 -26 28 -38
51 -12 22 -17 38 -12 35 5 -3 26 11 47 32 33 32 58 49 84 57 24 7 266 130 277
141 8 8 19 12 24 9 5 -4 9 -1 9 5 0 7 7 10 15 6 8 -3 15 0 15 7 0 7 21 21 48
31 64 27 123 68 175 124 32 34 74 98 58 88 -5 -3 -4 5 2 19 7 14 16 25 20 25
5 0 5 5 2 10 -3 6 -1 10 5 10 6 0 18 17 27 38 8 20 19 39 23 42 5 3 10 17 12
30 2 14 7 31 12 38 5 8 8 31 8 53 0 21 4 41 9 44 5 4 7 11 4 16 -4 5 -1 9 4 9
6 0 11 7 11 15 0 8 5 15 11 15 5 0 7 5 4 10 -3 6 -1 10 5 10 6 0 8 5 5 10 -3
6 2 10 12 9 20 -1 76 -63 76 -84 0 -8 4 -12 8 -10 3 3 12 -8 18 -23 7 -15 26
-43 44 -64 53 -61 82 -98 79 -103 -1 -3 8 -16 20 -30 41 -43 49 -55 44 -64 -3
-4 33 -46 79 -93 47 -47 85 -89 85 -93 0 -4 10 -16 22 -26 11 -11 18 -19 14
-19 -6 0 38 -53 75 -89 9 -9 20 -26 23 -39 4 -12 12 -20 17 -17 5 4 9 -1 9 -9
0 -9 5 -16 10 -16 6 0 10 -7 10 -15 0 -9 7 -18 15 -21 8 -4 15 -12 15 -20 0
-8 5 -14 12 -14 6 0 9 -3 5 -6 -3 -3 7 -19 21 -36 15 -17 26 -35 24 -40 -1 -5
2 -7 8 -3 5 3 10 1 10 -5 0 -6 43 -54 96 -107 78 -79 93 -98 80 -105 -9 -5
-16 -18 -16 -28 0 -11 -4 -20 -9 -20 -4 0 -23 -15 -42 -34 -35 -36 -44 -78
-27 -124 12 -35 10 -110 -7 -228 -4 -25 0 -33 17 -41 17 -7 25 -24 33 -71 12
-67 10 -73 -45 -136 -14 -16 -29 -34 -35 -40 -5 -6 -18 -25 -27 -41 -10 -17
-22 -29 -28 -27 -7 1 -9 -2 -5 -8 3 -5 -1 -13 -10 -16 -9 -4 -22 -18 -30 -33
-8 -14 -28 -42 -45 -61 -17 -19 -50 -60 -73 -90 -23 -30 -44 -57 -47 -60 -11
-11 -146 -212 -166 -248 -12 -20 -30 -53 -41 -73 -12 -19 -44 -80 -73 -135
-29 -54 -61 -114 -72 -131 -11 -18 -16 -33 -11 -33 4 0 4 -4 -2 -8 -5 -4 -34
-54 -64 -112 -30 -58 -59 -108 -65 -112 -6 -4 -8 -8 -4 -8 4 0 -4 -20 -17 -44
-32 -57 -32 -88 0 -122 14 -15 23 -29 21 -31 -6 -6 37 -46 66 -61 14 -8 38
-25 53 -38 15 -13 36 -24 45 -24 10 0 23 -7 30 -15 7 -8 16 -15 20 -15 4 0 44
-22 90 -50 46 -27 87 -50 93 -50 5 0 66 -23 136 -51 69 -28 134 -52 145 -54
10 -3 24 -9 32 -16 8 -6 14 -8 14 -4 0 4 6 2 13 -4 8 -6 17 -8 20 -5 6 6 95
-14 207 -46 65 -20 177 -38 260 -45 113 -8 198 -18 234 -25 22 -5 45 -6 50 -2
6 3 121 7 256 8 135 2 256 5 270 7 14 3 43 8 65 11 22 4 65 11 95 16 30 5 74
12 98 15 107 13 124 23 111 68 -11 36 -36 164 -37 187 0 8 -3 26 -7 40 -3 14
-8 43 -11 65 -3 22 -9 54 -15 70 -14 46 -70 247 -74 270 -2 11 -8 47 -14 80
-6 33 -18 87 -26 120 -18 70 -149 342 -176 366 -11 9 -19 21 -19 28 0 6 -3 11
-7 11 -11 0 -33 51 -27 61 3 5 0 9 -6 9 -6 0 -15 11 -20 24 -22 60 -71 156
-79 156 -4 0 -12 10 -18 23 -11 25 -62 85 -133 159 -25 25 -47 54 -48 64 -7
35 -104 210 -135 243 -18 18 -59 50 -92 72 -33 21 -67 45 -76 54 -9 8 -21 15
-27 15 -6 0 -17 9 -25 20 -12 17 -12 27 -2 56 6 19 17 40 23 46 7 7 12 17 12
23 0 16 57 65 66 57 4 -4 4 1 1 10 -4 11 0 19 13 23 10 3 17 12 14 19 -3 7 2
16 11 20 9 3 13 10 10 16 -3 5 -1 10 5 10 6 0 8 5 5 10 -3 6 1 10 10 10 9 0
13 5 10 10 -3 6 -1 10 6 10 7 0 10 3 6 6 -3 3 7 19 23 34 16 15 26 31 23 34
-4 3 -1 6 5 6 7 0 12 6 12 13 0 8 11 19 23 26 18 9 23 19 19 37 -2 13 -8 21
-13 18 -8 -5 -14 18 -10 39 1 5 -3 6 -8 3 -5 -4 -15 7 -22 23 -7 16 -18 27
-24 25 -5 -3 0 3 12 14 12 11 19 23 15 27 -4 5 -2 5 5 2 6 -4 20 3 30 16 20
26 58 49 88 54 10 2 22 7 25 12 6 9 41 22 52 18 4 -1 14 7 22 18 9 11 16 16
16 12 0 -5 14 2 32 14 17 13 28 16 23 8 -5 -8 0 -7 12 4 11 10 30 19 41 20 12
0 19 3 17 6 -7 7 22 25 115 72 74 37 100 53 156 99 7 5 15 6 18 3 3 -4 6 0 6
8 0 8 13 26 29 40 16 14 32 39 36 57 3 18 11 32 16 32 6 0 7 5 4 10 -3 6 -1
10 4 10 6 0 10 3 9 8 -3 16 15 41 26 35 6 -3 8 -3 4 2 -4 4 4 28 17 54 14 25
26 57 29 71 2 14 5 25 6 25 1 0 3 20 5 45 2 24 10 49 18 55 7 5 12 16 10 23
-3 6 1 12 8 12 7 0 10 3 6 6 -3 4 0 12 8 20 22 22 36 200 34 427 0 38 4 92 10
120 18 96 20 144 7 163 -15 20 -23 22 -121 29 -38 2 -81 7 -95 10 -14 3 -52 7
-85 9 -33 2 -78 7 -100 10 -152 24 -185 30 -222 42 -24 8 -57 16 -75 19 -18 3
-48 10 -66 16 -19 6 -50 13 -70 14 -21 2 -37 4 -37 5 0 3 -42 9 -99 15 -32 3
-63 8 -68 11 -5 3 -26 6 -46 6 -20 0 -41 4 -47 8 -33 27 -162 29 -265 5 -14
-3 -34 -8 -45 -10 -11 -3 -31 -8 -45 -11 -14 -3 -38 -8 -55 -11 -16 -2 -37 -7
-45 -10 -8 -3 -21 -7 -29 -9 -7 -1 -35 -8 -60 -14 -26 -6 -52 -10 -57 -9 -5 1
-21 -3 -35 -9 -14 -5 -42 -13 -63 -16 -20 -3 -82 -17 -138 -31 -55 -14 -104
-22 -109 -19 -5 3 -9 1 -9 -4 0 -5 -6 -9 -12 -10 -7 0 -26 -3 -43 -6 -113 -22
-113 -22 -117 -26 -2 -1 -19 -3 -38 -5 -19 -2 -71 -12 -115 -24 -51 -13 -83
-17 -89 -11 -6 6 -7 10 -2 10 18 0 -26 44 -46 46 -113 10 -148 14 -178 19 -19
3 -62 7 -95 10 -107 9 -214 26 -288 45 -39 11 -85 22 -102 25 -16 3 -37 6 -45
8 -8 1 -21 6 -28 11 -7 4 -30 9 -51 11 -20 1 -62 8 -92 14 -30 6 -63 10 -74
10 -11 0 -35 2 -52 5 -18 3 -46 8 -62 10 -17 2 -36 8 -43 12 -7 4 -22 9 -33
11 -30 4 -115 10 -118 7z"/>
</g>
</svg>
